<svg width="738" height="161" viewBox="0 0 738 161" fill="none" xmlns="http://www.w3.org/2000/svg">
<g clip-path="url(#clip0_24_62)">
<path d="M26.6985 106.799L-0.00183105 133.499L26.6985 160.199L53.3989 133.499L26.6985 106.799Z" fill="#F0F0F0"/>
<path d="M133.498 53.4002L106.798 80.1006L133.498 106.801L160.198 80.1006L133.498 53.4002Z" fill="#F0F0F0"/>
<path d="M133.497 106.8L106.797 133.5L133.497 160.2L160.198 133.5L133.497 106.8Z" fill="#F0F0F0"/>
<path d="M26.7 0L106.8 80.1L80.1 106.8L53.4 80.1L26.7 106.8L0 80.1L26.7 53.4L0 26.7L26.7 0Z" fill="#F0F0F0"/>
<path d="M133.499 0.000574623L106.798 26.7009L133.499 53.4013L160.199 26.7009L133.499 0.000574623Z" fill="#F0F0F0"/>
<path d="M213.61 100.18V54.52H218.75L236 90.89L253.15 54.52H258.35V100.15H252.99V66.92L237.48 100.18H234.47L218.97 66.92V100.18H213.61Z" fill="#F0F0F0"/>
<path d="M290.75 54.52H298.61L313.89 100.18H308.02L304.41 89.49H284.91L281.33 100.18H275.46L290.74 54.52H290.75ZM286.69 84.2H302.64L294.62 60.45L286.69 84.2Z" fill="#F0F0F0"/>
<path d="M364.66 100.18H358.19L350.01 83.31H336.66V100.18H331.02V54.52H349.06C349.95 54.52 351.25 54.58 352.42 54.77C359.81 55.91 363.71 61.65 363.71 68.91C363.71 74.93 361.01 79.91 355.85 82.07L364.66 100.18ZM336.66 77.96H348.87C349.66 77.96 350.77 77.9 351.72 77.67C356.1 76.69 357.93 72.72 357.93 68.92C357.93 65.12 356.09 61.15 351.72 60.17C350.77 59.95 349.66 59.88 348.87 59.88H336.66V77.95V77.96Z" fill="#F0F0F0"/>
<path d="M394.81 100.18V59.88H379.24V54.52H416.02V59.88H400.45V100.18H394.81Z" fill="#F0F0F0"/>
<path d="M443.35 54.52H451.21L466.49 100.18H460.62L457.01 89.49H437.51L433.93 100.18H428.06L443.34 54.52H443.35ZM439.29 84.2H455.24L447.22 60.45L439.29 84.2Z" fill="#F0F0F0"/>
<path d="M219.32 159.2H213.61V113.54H219.32L243.13 149.21V113.54H248.84V159.2H243.13L219.32 123.5V159.2Z" fill="#F0F0F0"/>
<path d="M282.51 113.54H290.37L305.65 159.2H299.78L296.17 148.51H276.67L273.09 159.2H267.22L282.5 113.54H282.51ZM278.45 143.22H294.4L286.38 119.47L278.45 143.22Z" fill="#F0F0F0"/>
<path d="M357.68 159.2H351.21L343.03 142.33H329.68V159.2H324.04V113.54H342.08C342.97 113.54 344.27 113.6 345.44 113.79C352.83 114.93 356.73 120.67 356.73 127.93C356.73 133.95 354.03 138.93 348.87 141.09L357.68 159.2ZM329.69 136.97H341.9C342.69 136.97 343.8 136.91 344.75 136.68C349.13 135.7 350.96 131.73 350.96 127.93C350.96 124.13 349.12 120.16 344.75 119.18C343.8 118.96 342.69 118.89 341.9 118.89H329.69V136.96V136.97Z" fill="#F0F0F0"/>
<path d="M389.45 113.54H397.31L412.59 159.2H406.72L403.1 148.51H383.6L380.02 159.2H374.15L389.43 113.54H389.45ZM385.39 143.22H401.34L393.32 119.47L385.39 143.22Z" fill="#F0F0F0"/>
<path d="M436.69 159.2H430.98V113.54H436.69L460.5 149.21V113.54H466.21V159.2H460.5L436.69 123.5V159.2Z" fill="#F0F0F0"/>
<path d="M485.23 136.37C485.23 122.29 492.87 112.59 506.54 112.59C520.21 112.59 527.85 122.29 527.85 136.37C527.85 150.45 520.21 160.15 506.54 160.15C492.87 160.15 485.23 150.45 485.23 136.37ZM521.86 136.37C521.86 125.43 516.75 118.04 506.54 117.98C496.33 117.92 491.29 125.43 491.23 136.37C491.17 147.31 496.33 154.7 506.54 154.76C516.75 154.82 521.86 147.31 521.86 136.37Z" fill="#F0F0F0"/>
<path d="M554.7 159.2L541.48 113.54H547.38L557.53 149.66L567.65 113.58L573.58 113.55L583.73 149.67L593.85 113.55H599.78L586.56 159.21H580.92L570.65 123.41L560.38 159.21H554.74L554.7 159.2Z" fill="#F0F0F0"/>
<path d="M618.46 159.2V113.54H624.1V159.2H618.46Z" fill="#F0F0F0"/>
<path d="M643.76 136.37C643.76 122.29 651.4 112.59 665.07 112.59C675.63 112.59 682.57 118.39 685.17 127.46L679.43 128.98C677.56 122.19 672.77 117.98 665.07 117.98C654.86 117.98 649.79 125.43 649.72 136.37C649.66 147.31 654.86 154.76 665.07 154.76C672.78 154.76 677.56 150.54 679.43 143.76L685.17 145.28C682.57 154.35 675.63 160.15 665.07 160.15C651.4 160.15 643.76 150.45 643.76 136.37Z" fill="#F0F0F0"/>
<path d="M703.56 159.2V158.19L727.69 118.9H704.51V113.54H737.2V114.62L713.2 153.84H736.89V159.2H703.56Z" fill="#F0F0F0"/>
</g>
<defs>
<clipPath id="clip0_24_62">
<rect width="737.2" height="160.2" fill="white"/>
</clipPath>
</defs>
</svg>
